<?xml version="1.0" encoding="UTF-8"?><svg id="Layer_1" xmlns="http://www.w3.org/2000/svg" xmlns:xlink="http://www.w3.org/1999/xlink" viewBox="0 0 48.59 49.8"><defs><style>.cls-1,.cls-2{fill:#fff;}.cls-3{fill:#72bf44;}.cls-4{clip-path:url(#clippath-1);}.cls-2{font-family:HelveticaNeueLTStd-BdCn, 'Helvetica Neue LT Std';font-size:15.69px;}.cls-5{fill:#009edb;}.cls-6{clip-path:url(#clippath);}.cls-7,.cls-8,.cls-9{fill:none;}.cls-8{stroke:#0c9ed9;stroke-width:.45px;}.cls-8,.cls-9{stroke-miterlimit:10;}.cls-9{stroke:#009edb;stroke-width:.57px;}</style><clipPath id="clippath"><rect class="cls-7" width="48.59" height="51.35"/></clipPath><clipPath id="clippath-1"><rect class="cls-7" x="12.96" y="18.9" width="30.27" height="18.9"/></clipPath></defs><g class="cls-6"><path class="cls-1" d="M48.3,28.56c0,11.54-9.36,20.9-20.9,20.9S6.51,40.1,6.51,28.56,15.86,7.66,27.4,7.66s20.9,9.36,20.9,20.9"/><circle class="cls-9" cx="27.4" cy="28.56" r="20.9"/><path class="cls-3" d="M9.15,17.85c4.8,0,8.69-3.89,8.69-8.69S13.96,.46,9.15,.46,.46,4.35,.46,9.15s3.89,8.69,8.69,8.69"/><circle class="cls-7" cx="9.15" cy="9.15" r="8.69"/><text class="cls-2" transform="translate(5.2 14.47)"><tspan x="0" y="0">1</tspan></text></g><g class="cls-4"><path class="cls-5" d="M42.59,18.9H16.72c-.35,0-.63,.28-.63,.63v3.79h10.11c1.22-1.91,3.76-2.47,5.67-1.24,.5,.32,.92,.74,1.24,1.24h6.32c1.04,0,1.89,.85,1.89,1.9v6.94h1.26c.35,0,.63-.28,.63-.63v-11.99c0-.35-.28-.63-.63-.63"/><path class="cls-5" d="M39.44,24.58H13.57c-.35,0-.63,.28-.63,.63v11.99c0,.35,.28,.63,.63,.63h25.87c.35,0,.63-.28,.63-.63v-11.99c0-.35-.28-.63-.63-.63m-20.94,7.57c-.35,.98-1.43,1.5-2.41,1.15-.98-.35-1.5-1.43-1.15-2.41,.19-.54,.61-.96,1.15-1.15,.2-.08,.41-.11,.63-.11,1.04,0,1.89,.84,1.9,1.89h0c0,.22-.04,.43-.11,.64m11.99,0c-.52,2.2-2.73,3.56-4.93,3.04-1.51-.36-2.68-1.53-3.04-3.04-.08-.31-.11-.63-.11-.95,0-2.03,1.48-3.75,3.49-4.05,.2-.04,.41-.05,.61-.05,2.26,0,4.1,1.83,4.1,4.09h0c0,.34-.04,.65-.11,.96m7.43,0c-.52,.91-1.68,1.22-2.59,.7-.91-.52-1.22-1.68-.7-2.59,.52-.91,1.68-1.22,2.59-.7,.59,.34,.95,.96,.95,1.64,0,.33-.09,.66-.25,.95"/><path class="cls-8" d="M39.44,24.58H13.57c-.35,0-.63,.28-.63,.63v11.99c0,.35,.28,.63,.63,.63h25.87c.35,0,.63-.28,.63-.63v-11.99c0-.35-.28-.63-.63-.63m-20.94,7.57c-.35,.98-1.43,1.5-2.41,1.15-.98-.35-1.5-1.43-1.15-2.41,.19-.54,.61-.96,1.15-1.15,.2-.08,.41-.11,.63-.11,1.04,0,1.89,.84,1.9,1.89h0c0,.22-.04,.43-.11,.64m11.99,0c-.52,2.2-2.73,3.56-4.93,3.04-1.51-.36-2.68-1.53-3.04-3.04-.08-.31-.11-.63-.11-.95,0-2.03,1.48-3.75,3.49-4.05,.2-.04,.41-.05,.61-.05,2.26,0,4.1,1.83,4.1,4.09h0c0,.34-.04,.65-.11,.96m7.43,0c-.52,.91-1.68,1.22-2.59,.7-.91-.52-1.22-1.68-.7-2.59,.52-.91,1.68-1.22,2.59-.7,.59,.34,.95,.96,.95,1.64,0,.33-.09,.66-.25,.95"/></g></svg>