<?xml version="1.0" encoding="UTF-8"?><svg id="Layer_1" xmlns="http://www.w3.org/2000/svg" xmlns:xlink="http://www.w3.org/1999/xlink" viewBox="0 0 48.59 49.8"><defs><style>.cls-1,.cls-2{fill:#fff;}.cls-3{fill:#72bf44;}.cls-4{clip-path:url(#clippath-1);}.cls-2{font-family:HelveticaNeueLTStd-BdCn, 'Helvetica Neue LT Std';font-size:15.69px;}.cls-5{fill:#009edb;}.cls-6{clip-path:url(#clippath);}.cls-7,.cls-8{fill:none;}.cls-8{stroke:#009edb;stroke-miterlimit:10;stroke-width:.57px;}</style><clipPath id="clippath"><rect class="cls-7" y="-.41" width="48.59" height="50.21"/></clipPath><clipPath id="clippath-1"><rect class="cls-7" x="12.41" y="17.1" width="29.3" height="22.49"/></clipPath></defs><g class="cls-6"><path class="cls-1" d="M48.3,28.62c0,11.54-9.36,20.9-20.9,20.9S6.51,40.16,6.51,28.62,15.86,7.72,27.4,7.72s20.9,9.36,20.9,20.9"/><circle class="cls-8" cx="27.4" cy="28.62" r="20.9"/><path class="cls-3" d="M9.15,17.43c4.8,0,8.69-3.89,8.69-8.69S13.96,.05,9.15,.05,.46,3.94,.46,8.74s3.89,8.69,8.69,8.69"/><circle class="cls-7" cx="9.15" cy="8.74" r="8.69"/><text class="cls-2" transform="translate(5.56 14.06)"><tspan x="0" y="0">3</tspan></text></g><g class="cls-4"><path class="cls-5" d="M41.1,31.05H13.02c-.34,0-.61,.27-.61,.61,0,4.38,3.55,7.93,7.93,7.93h13.43c4.38,0,7.93-3.55,7.93-7.93,0-.34-.27-.61-.61-.61"/><path class="cls-5" d="M25.16,24.48l-1.52-.41c-1.63-.44-3.3,.53-3.74,2.16l-.11,.4,1.52,.41c1.63,.43,3.3-.53,3.74-2.16l.11-.4Z"/><path class="cls-5" d="M24.82,27.98l1.52,.41c1.63,.44,3.3-.53,3.74-2.16l.11-.4-1.52-.41c-1.63-.44-3.3,.53-3.74,2.16l-.11,.4Z"/><path class="cls-5" d="M29.85,29.32l1.52,.41c1.63,.44,3.3-.53,3.74-2.16l.11-.4-1.52-.41c-1.63-.44-3.3,.53-3.74,2.16l-.11,.4Z"/><path class="cls-5" d="M24.09,22.39l1.52,.41,.11-.4c.44-1.63-.53-3.3-2.16-3.74l-1.52-.4-.11,.4c-.44,1.63,.53,3.3,2.16,3.74"/><path class="cls-5" d="M29.12,23.74l1.52,.41,.11-.4c.44-1.63-.53-3.3-2.16-3.74l-1.52-.41-.11,.4c-.44,1.63,.53,3.3,2.16,3.74"/><path class="cls-5" d="M34.14,25.09l1.52,.41,.11-.4c.44-1.63-.53-3.3-2.16-3.74l-1.52-.41-.11,.4c-.44,1.63,.53,3.3,2.16,3.74"/><path class="cls-5" d="M40.46,27.68c.12-.46-.15-.94-.61-1.06l-3.07-.82-.45,1.67,3.07,.82c.46,.13,.94-.15,1.06-.61"/><path class="cls-5" d="M16.06,23.83c-.46-.12-.94,.15-1.06,.61-.12,.46,.15,.94,.61,1.06l2.23,.6c.47,.12,.94-.15,1.06-.61,.12-.46-.15-.94-.61-1.06l-2.23-.6Z"/><path class="cls-5" d="M17.41,18.81l2.23,.6c.46,.12,.94-.15,1.06-.61,.12-.46-.15-.94-.61-1.06l-2.23-.6c-.46-.12-.94,.15-1.06,.61-.13,.46,.15,.94,.61,1.06"/><path class="cls-5" d="M14.28,21.56l6.14,1.65c.46,.12,.94-.15,1.06-.61,.12-.46-.15-.94-.61-1.06l-6.14-1.65c-.46-.13-.94,.15-1.06,.61-.13,.46,.15,.94,.61,1.06"/></g></svg>