<?xml version="1.0" encoding="UTF-8"?><svg id="Layer_1" xmlns="http://www.w3.org/2000/svg" xmlns:xlink="http://www.w3.org/1999/xlink" viewBox="0 0 48.59 49.8"><defs><style>.cls-1{fill:#fff;}.cls-2{fill:#079ed9;}.cls-3{fill:#72bf44;}.cls-4{clip-path:url(#clippath);}.cls-5,.cls-6{fill:none;}.cls-6{stroke:#009edb;stroke-miterlimit:10;stroke-width:.57px;}</style><clipPath id="clippath"><rect class="cls-5" y="-.41" width="48.59" height="50.21"/></clipPath></defs><g class="cls-4"><path class="cls-1" d="M48.3,28.62c0,11.54-9.36,20.9-20.9,20.9S6.51,40.16,6.51,28.62,15.86,7.72,27.4,7.72s20.9,9.36,20.9,20.9"/><circle class="cls-6" cx="27.4" cy="28.62" r="20.9"/><path class="cls-3" d="M9.15,17.43c4.8,0,8.69-3.89,8.69-8.69S13.96,.05,9.15,.05,.46,3.94,.46,8.74s3.89,8.69,8.69,8.69"/><circle class="cls-5" cx="9.15" cy="8.74" r="8.69"/><path class="cls-1" d="M12.68,14.06H5.84c0-1.98,.8-3.34,2.45-4.86l.91-.85c.99-.89,1.16-1.4,1.16-2.54,0-.93-.39-1.38-1.1-1.38-1.13,0-1.24,.99-1.25,2.16h-2.17v-.42c0-2.06,1.08-3.22,3.45-3.22,2.23,0,3.33,1.11,3.33,3.03,0,1.44-.46,2.38-1.73,3.53l-1.25,1.16c-.66,.6-1.04,1.21-1.15,1.63h4.19v1.76Z"/><path class="cls-2" d="M37.89,16.57l-3.27-1.12,.43-.38c.71-.62,1.82-.57,2.44,.14,.34,.39,.47,.88,.4,1.36m-4.44,4.46l-3.73-1.27,3.44-3.03,3.72,1.27-3.44,3.03Zm-4.98,4.39l-3.74-1.26,3.54-3.12,3.72,1.27-3.53,3.11Zm-2.66,2.34h0l-1.45,1.28h0s-2.56,2.29-2.56,2.29v-4.52h-.07l.56-.49,1.02-.9,3.71,1.29-1.21,1.07Zm-5.56,2.44c-.03,.96-.81,1.75-1.78,1.78-1.06,.03-1.93-.84-1.9-1.9,.03-.96,.82-1.75,1.78-1.78,1.06-.03,1.93,.83,1.9,1.9m17.98-15.66h0c-.99-1.12-2.7-1.23-3.83-.24l-14.19,12.5h-3.2c-1.1,0-1.98,.89-1.98,1.99v10.14c0,.44,.36,.8,.8,.8h5.18c.44,0,.8-.36,.8-.8v-6.23l16.19-14.32c1.12-.99,1.23-2.7,.24-3.83"/></g></svg>